<svg width="280" height="194" viewBox="0 0 280 194" fill="none" xmlns="http://www.w3.org/2000/svg">
<path d="M49.4174 49.5339C45.6546 53.0521 44.4663 58.9584 45.3517 63.525C46.4701 69.1983 50.4892 71.0972 49.4174 74.3475C48.334 77.6326 43.7557 77.1433 42.649 80.2072C42.1947 81.442 41.7753 84.7622 49.5222 91.9383C59.5875 101.258 70.4681 105.102 71.5166 105.475C90.4937 112.185 74.6037 108.923 118.441 126.223C148.31 138.012 144.21 134.995 156.337 140.657C158.457 141.647 172.006 148.008 190.167 154.193C198.52 157.036 205.16 158.923 211.824 155.999C213.012 155.475 220.759 151.922 222.204 145.177C223.252 140.237 220.13 137.325 222.204 132.549C223.683 129.112 225.768 129.531 227.166 126.689C230.242 120.456 224.72 109.459 216.787 103.518C212.08 99.9881 210.95 101.561 202.795 96.9126C195.223 92.6023 196.167 91.2277 187.907 86.0902C181.011 81.7915 175.046 78.1918 167.159 77.9705C163.455 77.8656 162.802 78.6112 159.937 77.9705C153.658 76.5725 152.574 72.0874 146.598 67.3927C139.014 61.4281 129.764 59.9836 122.157 58.7953C116.391 57.8983 115.424 58.4924 111.102 57.1527C109.948 56.7916 106.477 55.6616 96.5631 49.5456C87.9541 44.245 87.0455 42.9286 84.0748 43.0218C79.8111 43.15 79.217 45.9225 73.4271 46.7031C69.1284 47.2855 68.511 45.8876 63.1872 45.8876C58.8302 45.8876 53.32 45.8876 49.4057 49.5456L49.4174 49.5339Z" stroke="#661428" stroke-miterlimit="10"/>
<path d="M49.3592 63.7347C50.0465 64.5385 51.1182 65.6802 52.6094 66.8335C55.347 68.942 57.9216 69.8856 61.1252 71.0157C62.7212 71.5865 64.923 72.2738 67.6373 72.8796" stroke="#661428" stroke-miterlimit="10"/>
<path d="M93.8138 80.9294C95.0836 81.8614 96.7495 82.9914 98.7766 84.1797C101.98 86.0669 104.508 87.1503 106.989 88.2104C111.696 90.2141 114.131 91.2276 117.521 91.4606C118.814 91.5538 119.886 91.5072 120.619 91.4606" stroke="#661428" stroke-miterlimit="10"/>
<path d="M140.598 104.17C143.255 105.731 146.039 107.281 148.963 108.818C153.401 111.148 157.7 113.199 161.824 115.016" stroke="#661428" stroke-miterlimit="10"/>
<path d="M162.826 104.17C163.397 105.813 164.631 108.655 167.288 111.311C169.21 113.234 171.179 114.364 172.576 115.016" stroke="#661428" stroke-miterlimit="10"/>
<path d="M167.695 117.09C168.476 117.963 170.06 119.501 172.565 120.398C173.986 120.899 175.268 121.039 176.199 121.062" stroke="#661428" stroke-miterlimit="10"/>
<path d="M60.601 46.1672C60.834 49.965 61.7193 55.2888 64.6667 60.834C66.9733 65.1793 69.4313 67.6606 74.0912 72.2039C79.182 77.1667 81.8847 78.4015 83.8418 79.0306C86.8591 79.9975 90.6335 80.3353 91.3092 79.0306C91.7053 78.2734 90.785 77.4579 89.6084 73.8349C89.6084 73.8349 89.1307 72.3787 88.8279 71.0623C88.0473 67.7189 89.2239 65.0162 89.8647 62.4533C90.1442 61.3466 92.3227 52.1201 87.9658 47.7399C85.8106 45.5731 82.8167 45.3634 82.1993 45.3284C80.7431 45.2585 78.0637 45.5148 77.6326 46.7963C77.3647 47.6117 78.1802 48.3457 80.1256 50.7571C82.6652 53.9025 83.935 55.4752 84.3428 56.7799C85.1349 59.3428 83.8185 59.7273 84.5991 63.7464C84.9835 65.7501 85.6941 67.5791 85.9737 68.313C86.265 69.0702 86.7076 70.2119 87.6978 72.2738C88.5366 74.0329 89.7249 76.3395 91.2976 79.0306" stroke="#661428" stroke-miterlimit="10"/>
<path d="M67.0082 46.1672C66.7053 47.67 66.4374 50.1513 67.2179 52.9822C67.6956 54.7179 68.313 55.9411 69.1984 57.2808C71.2137 60.368 72.402 61.3815 74.8833 64.5152C78.3432 68.8955 77.4346 68.6974 78.9257 69.9323C80.1606 70.9574 83.4691 73.3223 84.9485 75.1862C85.2048 75.5124 85.6242 76.1415 85.5543 76.9103C85.4378 78.1219 84.1564 78.8558 83.8418 79.0189" stroke="#661428" stroke-miterlimit="10"/>
<path d="M107.222 57.7352C109.517 64.6434 112.127 70.107 114.189 73.9863C115.948 77.2715 119.851 84.1447 126.468 91.5189C130.452 95.9573 135.531 101.537 138.502 100.233C138.898 100.058 139.748 99.5454 140.61 96.1787C141.484 92.7421 141.927 88.0357 139.993 79.881C138.641 74.1843 137.966 71.3418 135.776 68.3013C132.351 63.5599 127.982 61.5912 127.097 61.2067C124.522 60.0884 122.204 59.7272 120.631 59.5991" stroke="#661428" stroke-miterlimit="10"/>
<path d="M112.08 60.834C113.816 64.422 115.435 67.2063 116.542 69.0236C119.431 73.73 121.645 76.3628 129.31 86.23C131.628 89.2006 133.469 91.5888 134.517 92.9635" stroke="#661428" stroke-miterlimit="10"/>
<path d="M135.764 88.49C136.043 86.5328 136.242 83.4224 135.228 79.881C134.319 76.7123 132.863 74.627 130.184 70.8759C128.634 68.709 126.374 65.7966 123.299 62.593" stroke="#661428" stroke-miterlimit="10"/>
<path d="M161.824 79.0772C160.554 80.1256 163.175 85.2281 167.194 92.9518C171.307 100.85 173.357 104.799 176.199 108.387C180.673 114.061 184.715 117.09 192.171 122.67C195.852 125.431 199.697 127.994 205.067 129.403C207.409 130.021 210.973 130.661 211.218 129.986C211.498 129.217 207.409 127.318 202.97 124.639C200.128 122.926 193.196 118.511 187.022 112.208C182.059 107.141 177.551 102.539 174.86 95.1303C173.241 90.6801 172.891 86.894 169.163 83.0497C166.659 80.4635 162.919 78.1452 161.824 79.0539V79.0772Z" stroke="#661428" stroke-miterlimit="10"/>
<path d="M173.87 84.8437C177.236 86.195 179.834 87.6396 181.605 88.7113C186.253 91.5422 189.398 94.4662 193.324 98.1125C195.922 100.524 197.588 102.306 198.415 103.203C201.036 106.069 202.411 107.56 203.611 109.599C204.706 111.463 206.244 114.783 206.488 119.781" stroke="#661428" stroke-miterlimit="10"/>
<path d="M202.807 96.901C204.857 98.7882 207.875 101.969 210.018 106.174C211.288 108.655 211.789 110.589 211.894 111.044C212.36 112.873 212.441 114.27 212.558 116.239C212.686 118.534 212.837 120.631 212.558 123.427C212.383 125.116 212.022 127.376 211.218 130.009" stroke="#661428" stroke-miterlimit="10"/>
<path d="M212.115 102.306C215.26 104.52 217.649 106.652 219.303 108.271C222.611 111.521 223.497 113.199 223.951 114.235C224.813 116.204 225.034 117.917 225.163 119.058C225.396 120.969 225.687 123.38 224.72 126.071C224.37 127.038 222.809 131.395 219.629 132.036C216.95 132.584 215.866 129.939 212.721 130.289C210.344 130.545 209.692 132.176 207.141 133.702C203.797 135.694 200.407 135.589 196.749 135.473C188.839 135.216 182.758 131.861 181.267 131.046C181.267 131.046 171.167 125.501 145.34 112.581C126.817 103.32 126.141 107.048 105.65 96.6563C91.251 89.3521 91.5771 87.4998 82.4322 84.4942C75.9784 82.374 67.3228 80.4984 54.1355 74.8717C53.0637 74.4173 52.19 74.0329 51.5959 73.765" stroke="#661428" stroke-miterlimit="10"/>
<path d="M217.893 131.966C215.284 134.657 211.055 138.047 205.195 139.364C201.479 140.202 198.508 140.028 193.371 139.364C189.678 138.886 186.358 138.583 182.525 136.742C178.762 134.937 177.097 133.178 176.712 132.735C174.871 130.626 174.068 128.401 173.695 127.027" stroke="#661428" stroke-miterlimit="10"/>
<path d="M50.7571 76.8987C53.087 79.9043 55.4169 82.1759 57.2925 83.8069C58.97 85.2514 62.4533 88.2337 67.6257 90.6451C69.012 91.2859 68.2547 90.8432 73.497 92.9634C78.8791 95.1419 79.5548 95.5613 81.8148 96.1437C83.4225 96.5515 83.8651 96.5398 84.7855 97.0408C86.8241 98.1358 87.2668 99.5804 88.9443 101.351C90.8549 103.355 92.9285 104.275 93.8022 104.671C97.565 106.337 98.6018 104.764 102.621 106.256C105.766 107.432 105.394 108.504 108.865 109.599C111.661 110.496 112.523 109.995 114.072 111.16C116.111 112.698 115.948 114.597 117.637 115.028C119.07 115.389 119.489 114.119 121.353 114.131C123.229 114.154 123.567 115.447 127.155 117.404C127.935 117.824 129.403 118.639 131.465 119.338C134.284 120.305 135.251 120.072 135.997 121.062C137.104 122.553 135.764 124.219 136.824 125.279C137.686 126.141 139.352 125.827 142.171 125.279C143.732 124.976 144.524 124.65 146.61 124.382C148.334 124.161 148.881 124.242 149.312 124.382C150.955 124.906 151.782 126.468 152.132 127.038C153.646 129.508 157.304 130.568 164.62 132.712C171.971 134.855 173.637 134.261 175.326 136.428C177.073 138.665 176.665 141.053 178.739 141.926C180.347 142.602 181.127 141.391 183.795 141.926C186.102 142.392 186.148 143.429 188.257 143.557C190.062 143.674 191.565 142.684 192.567 142.066C194.641 140.796 194.186 140.202 195.13 139.934C197.006 139.399 198.147 141.589 202.819 143.557C203.669 143.919 204.543 144.28 205.778 144.571C207.199 144.909 210.053 145.398 213.455 144.571C214.282 144.373 215.377 144.035 216.635 143.441" stroke="#661428" stroke-miterlimit="10"/>
<path d="M169.816 131.885C169.454 130.382 168.627 128.308 166.74 127.038C165.645 126.304 164.573 126.095 162.814 125.745C159.552 125.093 159.005 125.745 157.106 125.023C156.255 124.697 156.244 124.522 153.005 122.052C149.464 119.35 148.462 118.779 148.089 119.07C147.681 119.396 148.508 120.34 148.089 121.435C147.483 123.031 144.513 124.149 142.358 123.078C140.995 122.402 139.818 120.783 140.202 119.781C140.633 118.697 142.591 119.222 143.79 117.649C144.431 116.798 144.769 115.47 144.303 115.016C143.546 114.294 141.437 116.577 137.546 117.09C137.173 117.136 132.91 117.66 132.118 116.006C131.244 114.189 135.333 111.346 134.517 110.065C133.912 109.11 130.813 109.366 129.636 110.962C128.774 112.127 129.485 113.269 128.739 113.851C127.411 114.876 123.276 112.814 123.299 110.962C123.311 109.552 125.71 109.098 125.571 108.12C125.372 106.698 120.352 107.712 115.226 104.66C113.909 103.867 113.408 103.308 110.822 101.771C108.376 100.314 106.256 99.0678 105.696 99.6153C104.916 100.384 107.863 104.065 107.211 104.648C106.617 105.184 104.462 101.899 100.582 101.246C97.0408 100.652 95.4448 102.819 92.3926 101.549C91.1694 101.048 89.4453 99.8833 89.5268 98.5785C89.6084 97.2621 91.5072 96.1088 93.1149 95.9108C94.4662 95.7477 95.2817 96.3069 95.5729 95.9108C95.9457 95.3866 94.9322 93.8721 93.8255 92.9285C93.5576 92.6955 91.2859 90.8199 88.921 91.4956C87.8842 91.7868 87.7211 92.3227 86.7659 92.9285C84.4476 94.4196 81.0576 94.0468 78.7743 92.9285C75.5474 91.3442 73.1825 87.5697 74.0679 86.195C74.9649 84.7855 79.3801 85.7524 79.3917 86.195C79.3917 86.7426 72.7981 88.6881 67.6373 86.195C65.8316 85.3213 65.4122 84.4826 62.3834 83.0963C61.2999 82.607 59.9952 82.0828 58.4924 80.8945C56.8615 79.5898 56.5586 78.4248 56.4421 77.8773C56.279 77.1433 56.3489 76.5026 56.4304 76.0716" stroke="#661428" stroke-miterlimit="10"/>
</svg>
