<svg width="362" height="366" viewBox="0 0 362 366" fill="none" xmlns="http://www.w3.org/2000/svg">
<path d="M157.069 45.9136C156.016 74.7262 154.932 103.509 153.878 132.321M133.375 287.946C123.861 280.268 117.057 272.922 112.661 267.744C102.395 255.61 91.1647 242.333 87.9733 222.221C87.4615 219 86.3776 210.781 87.9733 200.424C91.1948 179.439 102.816 165.861 108.506 159.388C115.823 151.048 131.207 133.556 153.878 132.321C150.807 132.05 146.652 131.9 141.775 132.321C141.775 132.321 130.545 133.315 119.676 138.012C98.8721 147.014 86.2873 166.975 84.511 169.805C80.7777 175.886 67.5907 198.076 72.4681 227.4C73.5218 233.722 77.6465 258.591 99.2635 274.939C115.281 287.072 132.562 288.186 145.117 288.999C155.112 289.632 168.51 290.505 183.955 283.971C204.518 275.27 215.447 259.043 220.114 250.492C223.095 245.013 229.778 231.133 229.477 212.437C228.996 180.704 208.854 160.321 203.043 154.42C197.263 148.579 187.237 138.644 170.919 134.339C167.667 133.495 161.555 131.9 153.878 132.321" stroke="#F5F1E8" stroke-miterlimit="10"/>
<path d="M153.878 132.321C149.483 135.362 143.551 140.059 137.681 146.893C131.749 153.758 128.528 159.629 124.223 167.667C119.315 176.88 115.762 183.504 112.993 193.379C111.849 197.473 109.922 205.331 109.47 215.508C108.627 233.753 113.023 247.301 113.956 250.131C114.889 252.871 118.502 263.258 126.782 274.819C131.027 280.75 135.272 285.296 138.614 288.518" stroke="#F5F1E8" stroke-miterlimit="10"/>
<path d="M153.878 132.321C149.844 145.388 145.448 162.218 142.167 182.149C138.554 204.097 137.771 220.957 137.349 230.892C136.687 246.247 136.657 265.817 138.614 288.518" stroke="#F5F1E8" stroke-miterlimit="10"/>
<path d="M153.878 132.321C163.542 142.016 168.66 151.62 171.34 157.792C177.602 172.153 178.114 184.678 178.385 194.974C178.535 200.635 178.716 210.901 176.157 224.148C174.2 234.174 170.768 250.974 158.514 268.075C151.77 277.468 144.424 284.092 138.613 288.518" stroke="#F5F1E8" stroke-miterlimit="10"/>
<path d="M162.127 132.562C171.31 137.981 189.525 150.596 200.484 173.809C207.86 189.374 208.673 202.772 208.823 205.542C209.998 228.694 200.604 245.645 196.961 252.027C188.862 266.208 178.987 274.608 175.163 277.679C167.847 283.49 160.832 287.133 155.594 289.421" stroke="#F5F1E8" stroke-miterlimit="10"/>
<path d="M84.541 169.805C104.743 166.764 121.633 166.884 133.827 167.667C148.338 168.601 159.96 170.768 167.486 172.213C176.579 173.96 184.377 175.435 194.101 178.626C202.441 181.366 213.942 185.942 226.858 193.77" stroke="#F5F1E8" stroke-miterlimit="10"/>
<path d="M71.4141 212.437C77.3452 209.456 86.2569 205.663 97.5772 203.314C106.609 201.448 113.323 201.147 126.751 201.056C140.149 200.966 149.362 200.906 162.338 202.351C179.409 204.217 191.933 207.409 194.733 208.131C204.307 210.6 216.139 214.394 229.206 220.325" stroke="#F5F1E8" stroke-miterlimit="10"/>
<path d="M71.7451 221.68C86.7686 233.602 100.588 238.72 109.349 241.129C119.977 244.049 130.454 244.35 151.469 244.983C164.325 245.374 175.766 244.922 186.905 243.778C187.808 243.688 189.073 243.568 190.578 243.387C200.333 242.213 212.617 239.895 226.858 235.047" stroke="#F5F1E8" stroke-miterlimit="10"/>
<path d="M82.042 255.128C89.8097 258.109 111.969 266.358 131.629 270.001C134.338 270.513 139.065 271.356 145.418 271.928C146.592 272.019 157.701 272.952 169.082 271.928C189.826 270.062 208.101 261.963 214.965 258.711" stroke="#F5F1E8" stroke-miterlimit="10"/>
<path d="M255.189 132.321C255.189 132.321 255.37 132.773 255.55 133.586C255.671 134.098 256.544 137.771 255.189 141.173C254.436 143.07 252.359 144.695 248.234 147.947C244.983 150.506 243.899 150.897 243.327 151.048C239.834 152.102 236.673 150.837 236.613 151.048C236.553 151.319 241.731 151.801 246.307 155.143C247.331 155.895 250.312 158.093 251.968 161.856C254.557 167.637 252.66 173.929 252.78 173.96C252.901 173.96 252.931 167.848 256.002 162.188C256.815 160.682 257.598 159.659 258.501 158.755C259.103 158.183 260.699 156.708 264.372 155.323C268.948 153.607 271.838 153.848 271.899 153.155C271.959 152.463 269.309 152.102 265.034 150.265C262.023 148.971 260.518 148.338 259.314 147.315C253.955 142.799 254.858 132.381 255.159 132.351L255.189 132.321Z" stroke="#F5F1E8" stroke-miterlimit="10"/>
<path d="M265.636 171.34C265.846 171.34 266.569 174.201 265.636 176.85C265.064 178.506 264.01 179.65 263.257 180.493C262.354 181.486 261.39 182.54 259.945 183.112C257.266 184.196 254.285 183.142 254.285 183.112C254.285 183.052 258.41 182.781 261.21 185.129C261.451 185.31 262.324 186.123 263.227 187.899C265.605 192.656 264.732 198.015 264.702 198.015C264.672 198.015 264.582 192.957 266.057 187.899C266.418 186.695 266.689 186.063 267.261 185.521C269.73 183.203 274.818 185.25 274.969 184.708C275.059 184.407 273.674 183.835 270.001 182.028C268.195 181.155 267.291 180.704 267.051 180.523C264.07 177.874 265.274 171.401 265.575 171.37L265.636 171.34Z" stroke="#F5F1E8" stroke-miterlimit="10"/>
<path d="M238.209 167.155C238.42 167.155 239.142 170.015 238.209 172.665C237.637 174.321 236.583 175.465 235.83 176.308C234.927 177.301 233.964 178.355 232.519 178.927C229.839 180.011 226.858 178.957 226.858 178.927C226.858 178.867 230.983 178.596 233.783 180.944C234.024 181.125 234.897 181.938 235.8 183.714C238.179 188.471 237.306 193.83 237.275 193.83C237.245 193.83 237.155 188.772 238.63 183.714C238.992 182.51 239.263 181.878 239.835 181.336C242.303 179.018 247.392 181.065 247.542 180.523C247.632 180.222 246.247 179.65 242.574 177.843C240.768 176.97 239.865 176.519 239.624 176.338C236.643 173.689 237.848 167.215 238.149 167.185L238.209 167.155Z" stroke="#F5F1E8" stroke-miterlimit="10"/>
<path d="M72.6792 267.713C72.6792 267.713 72.8599 268.165 73.0405 268.978C73.1609 269.49 74.034 273.163 72.6792 276.565C71.9265 278.462 69.8491 280.087 65.7245 283.339C62.4729 285.898 61.389 286.29 60.817 286.44C57.3245 287.494 54.1633 286.229 54.1031 286.44C54.0428 286.711 59.2213 287.193 63.7976 290.535C64.8212 291.287 67.8018 293.485 69.4577 297.249C72.047 303.029 70.1502 309.322 70.2706 309.352C70.3911 309.352 70.4212 303.24 73.4921 297.58C74.305 296.074 75.0878 295.051 75.991 294.148C76.5932 293.575 78.1888 292.1 81.8619 290.715C86.4382 288.999 89.3285 289.24 89.3887 288.548C89.4489 287.855 86.7995 287.494 82.5243 285.657C79.5136 284.363 78.0082 283.73 76.8039 282.707C71.4448 278.191 72.348 267.774 72.6491 267.743L72.6792 267.713Z" stroke="#F5F1E8" stroke-miterlimit="10"/>
<path d="M104.291 128.468V137.319" stroke="#F5F1E8" stroke-miterlimit="10"/>
<path d="M91.4961 137.319C93.152 138.312 94.7778 139.276 96.4337 140.269" stroke="#F5F1E8" stroke-miterlimit="10"/>
<path d="M82.042 144.876C84.5108 145.418 86.9495 145.96 89.4183 146.532" stroke="#F5F1E8" stroke-miterlimit="10"/>
<path d="M78.7002 156.046H83.3066" stroke="#F5F1E8" stroke-miterlimit="10"/>
<path d="M184.497 290.746V300.38" stroke="#F5F1E8" stroke-miterlimit="10"/>
<path d="M196.239 285.176C196.631 286.531 197.022 287.946 197.383 289.421C197.985 291.89 198.497 294.298 198.889 296.556" stroke="#F5F1E8" stroke-miterlimit="10"/>
<path d="M205.241 277.559C207.349 279.425 209.456 281.262 211.564 283.128" stroke="#F5F1E8" stroke-miterlimit="10"/>
<path d="M214.966 270.724C217.224 272.591 219.452 274.427 221.71 276.294" stroke="#F5F1E8" stroke-miterlimit="10"/>
<path d="M223.215 259.073C226.346 260.066 229.447 261.06 232.578 262.053" stroke="#F5F1E8" stroke-miterlimit="10"/>
</svg>
