<svg width="194" height="227" viewBox="0 0 194 227" fill="none" xmlns="http://www.w3.org/2000/svg">
<path d="M145.115 14.7008C131.666 31.5388 121.56 45.5374 114.676 55.4448C108.92 63.7188 101.181 75.2138 87.5179 84.0068C83.2283 86.7699 75.8245 90.8764 66.9093 90.0978C60.1466 89.5025 56.6355 86.4646 55.9486 85.8387C55.3685 85.3197 50.2392 80.6942 51.3842 76.7099C51.8727 75.0001 53.6435 72.985 66.2987 70.3136C73.8247 68.7259 79.6409 67.5352 89.4414 67.2757C103.058 66.894 111.79 66.6651 114.111 71.2295C115.332 73.6567 114.141 76.4351 111.668 81.8849C108.462 88.9834 105.898 90.7542 93.3952 105.333C88.8613 110.63 86.7089 113.286 83.0756 113.561C79.244 113.836 76.2366 111.271 74.2216 109.607C60.0856 97.9291 64.0546 105.119 51.2162 93.1662C37.0039 79.9156 17.4639 57.4141 20.6239 53.8877C21.662 52.7275 24.425 54.4373 30.0581 56.3302C39.7059 59.5665 45.5985 59.2765 70.8631 59.3681C99.4557 59.4902 100.998 59.765 104.051 59.6734C119.438 59.1849 127.132 58.9406 133.452 57.3988C139.635 55.8875 146.428 53.4908 147.283 55.109C147.909 56.2692 145.1 58.8796 143.94 59.9787C130.231 72.8476 118.156 87.3805 104.967 100.784C103.242 102.539 99.4099 106.478 95.5171 112.523C94.0058 114.874 92.7235 117.164 91.9755 118.69C88.4491 125.819 89.0445 130.949 88.2202 155.297C88.0675 159.923 88.4339 164.579 88.098 169.189C87.6401 175.616 86.7699 179.692 88.9834 181.325C90.0826 182.134 91.1512 181.768 93.9295 181.524C99.8526 180.989 104.219 181.722 109.546 182.699C114.813 183.661 118.584 184.363 118.965 186.317C119.362 188.332 115.943 190.744 113.866 191.813C110.325 193.614 106.921 193.446 105.47 193.385C98.6161 193.08 91.7618 193.599 84.9075 193.462C78.8013 193.339 72.7103 192.958 66.6193 192.759C66.6193 192.759 62.7265 192.622 57.353 190.882C52.3917 189.263 52.1932 188.134 52.178 187.813C52.1474 187.126 52.7428 186.21 55.628 184.836C59.017 183.218 61.8717 182.714 68.8175 181.936C75.1528 181.218 79.1218 180.928 83.0756 180.76C84.0068 180.715 84.7701 180.699 85.2892 180.684" stroke="#661428" stroke-miterlimit="10"/>
</svg>
