<svg width="160" height="239" viewBox="0 0 160 239" fill="none" xmlns="http://www.w3.org/2000/svg">
<path d="M77.4172 22.1299C78.7392 23.9106 80.3519 26.7101 80.1269 30.0144C79.9581 32.4468 78.8986 33.6308 75.4764 38.8168C69.4196 47.9772 68.6883 50.382 68.3507 51.8598C67.9007 53.7965 67.1881 56.8989 68.3507 60.3501C68.6414 61.2037 69.429 63.2322 75.4764 68.8404C80.9426 73.9162 81.8052 73.6592 84.1491 76.7249C87.787 81.4887 88.1245 85.2795 88.1808 86.436C88.237 87.6659 88.4433 91.8514 86.3244 92.806C84.4492 93.6505 81.627 91.5761 80.1269 89.7679C78.3923 87.6843 78.7111 86.2799 77.4172 81.2775C76.0108 75.807 74.9045 71.7317 71.7542 70.3549C71.6323 70.2998 69.1946 69.2718 67.7132 70.3549C65.2942 72.1264 67.2912 78.1751 67.7132 79.4602C68.7914 82.7278 70.4509 85.408 77.2391 92.9988C83.5303 100.039 84.768 100.709 86.9432 104.334C88.734 107.318 92.6812 113.899 90.356 116.772C88.0964 119.562 80.7176 117.873 77.4266 116.772C72.2417 115.037 69.5133 112.173 67.235 113.44C66.1099 114.073 65.4536 115.505 65.5661 116.698C65.7536 118.69 68.0226 119.736 72.0636 121.921C79.0861 125.703 73.5169 123.243 85.2274 129.916C88.659 131.871 90.4873 132.853 91.0779 134.973C91.528 136.607 91.1905 138.736 89.8966 140.031C88.3308 141.582 85.6587 141.655 78.3923 140.031C70.9854 138.369 69.3258 137.295 63.2408 135.79C52.0741 133.027 48.6144 134.413 47.4143 134.973C46.758 135.285 41.9388 137.617 41.92 141.224C41.9013 144.308 45.3891 146.465 46.5798 147.208C49.5801 149.062 52.3929 149.228 57.0715 149.494C71.2854 150.311 70.9197 150.311 71.2291 150.311C76.7797 150.265 82.3865 149.567 93.3844 148.19C105.236 146.703 108.883 145.988 111.377 142.812C111.977 142.05 113.993 139.25 113.046 136.937C112.183 134.845 109.314 134.211 105.883 133.514C96.7598 131.66 92.2031 130.732 89.7278 130.576C83.4084 130.182 80.8488 130.356 69.7384 130.411C54.9525 130.485 51.5772 130.209 45.7548 132.045C41.4793 133.385 38.2915 134.432 35.5913 137.424C29.8532 143.794 31.5784 153.211 32.0941 156.011C32.7879 159.774 35.6194 164.547 41.2543 173.946C47.8362 184.914 50.2083 187.347 51.746 188.788C54.1556 191.037 58.0091 194.561 64.2347 196.617C69.7196 198.426 74.3419 198.214 76.0577 198.086C83.8679 197.48 89.2028 193.928 91.7155 192.212C94.3033 190.449 100.041 186.016 103.539 178.517C106.595 171.963 107.42 164.18 107.533 163.023C108.105 157.287 107.523 153.404 110.364 151.284C111.864 150.164 114.33 149.521 115.53 150.467C116.252 151.036 116.299 152.11 116.374 154.248C116.43 155.827 116.477 157.415 115.765 159.269C115.352 160.343 114.218 162.748 113.327 162.592C112.446 162.436 111.93 159.756 112.371 157.479C112.736 155.57 113.711 154.267 114.461 153.303C118.559 148.062 120.612 145.437 123.941 144.106C125.684 143.408 129.435 141.903 132.379 143.684C135.201 145.382 135.595 149.081 135.773 150.669C135.942 152.22 136.167 156.571 131.338 164.207C129.772 166.686 126.331 171.624 119.328 177.324C112.333 183.014 102.357 189.008 101.054 187.54C100.435 186.842 101.757 184.391 103.492 183.024C104.167 182.491 105.639 181.537 108.883 181.408C111.358 181.307 113.543 181.729 118.54 183.538C124.597 185.731 127.663 186.86 129.238 188.733C129.716 189.302 132.435 192.533 131.844 196.314C131.254 200.087 127.644 202.565 124.184 204.41C108.733 212.625 85.9399 213.414 81.2051 213.543C75.739 213.69 66.4849 212.91 47.9675 211.34C47.9675 211.34 38.3384 210.523 27.6874 205.548C25.1746 204.373 21.9399 202.639 20.6461 199.206C20.3929 198.536 19.4835 195.874 20.6461 193.139C21.7149 190.624 23.8995 189.522 27.4061 187.76C31.0815 185.915 34.3537 185.263 36.2757 185.006C38.9197 184.648 41.1606 184.722 42.7545 184.869" stroke="white" stroke-miterlimit="10"/>
</svg>
