<svg width="309" height="187" viewBox="0 0 309 187" fill="none" xmlns="http://www.w3.org/2000/svg">
<path d="M143.568 28.8745C142.5 27.9698 140.44 26.5123 137.499 26.0976C133.516 25.5322 128.39 26.9395 126.643 30.2692C125.726 32.0158 125.99 33.8503 124.319 34.9057C124.206 34.9686 124.105 35.0314 124.105 35.0314M124.105 35.0314C124.105 35.0314 123.866 35.157 123.615 35.2576C122.748 35.5717 121.73 35.4837 121.73 35.4837C118.526 35.2073 115.31 35.9989 112.093 36.0617C103.586 36.2376 97.1908 42.6458 91.4108 42.6584C91.2726 42.6584 90.4308 42.6584 89.0235 42.6584C85.5932 42.6584 83.8718 42.6584 83.6707 42.6835C80.1274 43.0102 76.6092 47.8477 75.5914 52.2204C75.4532 52.8109 76.0186 56.6307 77.162 64.2452C77.6647 67.5749 77.9285 69.2712 79.1348 70.9172C80.6426 72.9779 82.4394 73.6061 82.2635 74.7872C82.0876 75.9809 80.1651 76.0814 78.0416 77.6395C75.5663 79.4489 74.5611 81.9745 74.071 83.1933C72.6135 86.8246 72.3622 92.1019 74.8626 96.0096C76.0312 97.819 77.3631 98.6734 77.0238 99.754C76.5715 101.199 73.9328 100.458 71.8093 102.254C69.1581 104.491 68.6052 109.58 70.3392 112.696C71.3067 114.443 72.3873 114.455 72.7266 116.101C73.2041 118.438 71.2188 119.293 71.4826 121.894C71.6962 124.005 73.0784 124.118 73.7569 126.769C74.3098 128.955 73.669 130.074 73.6438 131.983C73.5936 135.2 75.2899 137.575 77.3882 140.49C78.2803 141.734 83.0802 148.243 92.8181 152.628C97.1154 154.563 100.005 154.99 105.295 156.146C122.032 159.79 122.082 161.474 132.348 163.383C141.659 165.117 148.305 164.992 161.398 164.715C176.941 164.401 186.126 162.642 190.449 161.712C201.142 159.4 205.275 157.076 207.814 155.367C214.548 150.831 217.928 145.315 219.499 142.676C221.648 139.083 224.651 133.893 223.834 127.648C223.771 127.121 223.093 122.296 221.158 121.969C219.499 121.693 217.69 124.884 217.514 124.758C217.313 124.62 220.366 121.391 221.798 117.257C223.947 111.063 221.623 105.207 219.863 100.747C218.079 96.2358 216.735 95.595 216.22 95.4065C212.701 94.0872 208.015 98.397 207.864 98.1708C207.713 97.9446 213.983 95.5699 216.659 90.0287C218.707 85.7691 218.934 79.0091 219.022 76.3076C219.047 75.5411 219.072 74.071 219.662 72.2365C220.555 69.4471 222.087 67.9141 222.879 66.8712C226.272 62.3981 225.769 53.9795 222.238 49.5063C221.045 47.986 219.838 47.3451 213.908 44.895C205.552 41.427 201.38 39.7056 198.314 38.7381C189.092 35.8355 172.33 31.7393 169.101 32.1917C168.937 32.2168 168.271 32.3299 167.957 31.9655C167.379 31.3247 168.535 29.8671 168.761 28.397C169.264 25.2055 165.369 22.1522 164.741 21.6622C160.569 18.3952 155.48 19.1366 154.035 19.3502C151.271 19.7523 149.411 20.7952 147.853 21.6622C145.73 22.8433 143.832 23.949 143.43 25.9343C143.305 26.5625 143.38 27.0149 143.531 27.8944C143.933 30.2818 144.888 31.5132 145.742 33.2974C146.785 35.5089 147.74 37.5193 147.25 39.5674C146.609 42.2437 143.795 43.6636 142.35 44.3924C139.321 45.9127 136.519 45.7996 134.773 45.6991C133.83 45.6489 126.04 45.1337 124.846 41.3893C124.47 40.1956 124.809 35.4963 124.105 35.0314ZM124.105 35.0314C123.163 34.4031 121.416 39.2658 120.537 39.8187C117.144 41.9799 117.71 40.4218 109.316 43.9903C103.976 46.2645 99.9802 48.4886 98.485 49.343C98.485 49.343 89.3502 54.5575 85.3042 60.1741C84.6006 61.1416 83.8592 62.4106 83.6079 64.0944C83.52 64.6849 83.2812 66.3686 83.9974 68.1403C84.9398 70.4397 86.4099 70.2136 89.2245 73.493C90.6695 75.1768 91.3983 76.5463 91.838 77.539C92.5417 79.1347 92.9689 80.1274 92.7553 81.3211C92.5291 82.5399 91.4234 83.5828 89.2371 85.6309C87.2644 87.4654 86.8371 87.5659 86.4979 88.3701C86.0078 89.5261 86.1963 90.971 87.679 93.8484C89.991 98.3467 91.9637 99.5027 95.1175 104.416C96.663 106.816 97.4421 108.06 97.5928 109.643C97.9447 113.086 95.9091 116.265 95.2432 117.219C93.5846 119.594 92.4537 119.569 92.2401 121.002C91.8255 123.791 95.6704 126.606 96.9395 127.523C100.985 130.488 103.423 129.772 105.157 132.612C106.212 134.346 106.326 136.268 106.326 136.921C106.363 139.648 105.056 139.975 105.157 142.149C105.195 143.091 106.313 145.089 108.55 149.072C109.153 150.14 109.819 151.308 109.731 152.854C109.668 153.809 107.695 156.118 107.431 156.621" stroke="#661428" stroke-miterlimit="10"/>
<path d="M145.88 42.7211C145.73 43.4876 145.579 46.7923 145.88 48.2247C146.559 51.5168 149.047 53.3261 149.625 53.7533C153.181 56.3543 157.44 55.6632 160.192 55.2234C163.308 54.7208 166.223 54.2434 168.322 51.6424C170.345 49.1294 171.048 45.3473 169.792 42.5327C168.447 39.5422 165.268 38.4617 165.557 37.8208C165.796 37.3182 167.869 37.8208 170.382 38.4742C177.142 40.2208 180.56 41.1129 182.47 42.0553C186.264 43.9275 188.501 45.0457 189.632 47.5839C190.386 49.2802 190.461 51.2278 190.612 54.4193C190.775 57.9626 190.323 58.0757 190.775 59.2945C191.818 62.1468 194.922 63.5792 197.611 64.8232C201.632 66.6828 203.604 66.3812 203.956 67.5875C204.471 69.3466 200.865 71.8345 197.774 73.9328C191.642 78.1044 188.828 78.4688 182.482 82.7158C177.13 86.2968 176.011 88.1313 175.647 89.8779C175.358 91.3229 175.521 93.0443 175.81 96.0599C176.212 100.244 176.652 99.9676 176.464 100.935C175.66 105.119 168.686 104.629 162.642 111.188C161.072 112.897 159.325 114.832 159.551 117.207C159.84 120.172 162.919 120.625 163.622 123.552C164.803 128.503 157.604 134.044 157.277 134.283C152.98 137.512 146.659 139.233 145.717 139.485C142.94 140.226 140.628 140.515 140.364 141.759C140.025 143.305 143.292 144.033 143.782 146.798C144.109 148.67 142.764 149.172 141.018 154.274C139.887 157.578 140.012 158.659 140.339 159.476C140.993 161.072 144.825 164.238 145.717 164.602" stroke="#661428" stroke-miterlimit="10"/>
<path d="M130.576 29.1761C129.533 30.0054 128.214 31.0483 128.352 32.4053C128.453 33.3603 129.244 34.3906 130.074 34.4283C131.179 34.4785 131.745 32.7194 132.599 32.9079C133.303 33.0713 133.265 34.3529 133.918 34.4534C134.66 34.5791 134.924 32.9833 136.243 32.6063C137.449 32.2545 138.165 33.2974 139.07 32.8074C139.724 32.4556 139.912 31.6263 140.113 30.7844C140.289 30.0054 140.515 29.0881 140.113 28.3594C139.259 26.8013 136.142 27.1531 135.238 27.2536C134.622 27.3165 132.561 27.618 130.589 29.1761H130.576Z" stroke="#661428" stroke-miterlimit="10"/>
<path d="M150.58 22.9061C150.655 23.2831 151.283 23.1951 152 24.0118C152.565 24.6652 152.552 25.1678 152.904 25.2307C153.482 25.3186 153.809 24.037 154.425 24.0747C155.103 24.1124 155.153 25.7458 156.046 25.9469C156.636 26.0851 157.39 25.5573 157.666 24.9417C158.056 24.0747 157.327 23.3962 157.666 22.9187C158.27 22.0517 161.134 23.5344 161.511 22.9187C161.775 22.504 160.808 21.1721 159.488 20.4936C157.805 19.6392 156.058 20.1167 154.638 20.4936C152.615 21.0465 150.467 22.1899 150.592 22.9187L150.58 22.9061Z" stroke="#661428" stroke-miterlimit="10"/>
<path d="M149.788 38.7201C149.939 38.8332 149.185 38.2481 149.788 38.2481C149.914 38.2481 150.278 38.2481 150.567 38.4742C151.145 38.8889 150.818 39.6428 151.283 39.9946C151.748 40.3339 152.289 39.7182 152.904 39.9946C153.746 40.3716 153.457 41.9045 154.123 42.1181C154.726 42.3066 155.166 41.0752 156.058 41.1129C157.189 41.1506 157.641 43.161 158.471 43.0354C158.709 42.9977 158.998 42.5076 159.576 41.515C160.041 40.7234 160.28 40.3213 160.481 39.7936C160.82 38.9266 161.059 38.3486 160.984 37.6198C160.845 36.1748 159.652 35.2827 159.463 35.1445C158.408 34.378 157.277 34.4283 156.046 34.4785C154.965 34.5288 153.847 34.5665 152.992 35.3455C152.351 35.9235 152.49 36.3507 151.886 36.6649C150.932 37.1549 150.152 36.3507 149.361 36.8659C148.708 37.2931 148.544 38.3235 148.758 38.4868L149.788 38.7201Z" stroke="#661428" stroke-miterlimit="10"/>
<path d="M159.576 35.1822C159.69 35.4083 162.718 36.7151 163.522 36.9538C164.364 37.2051 165.105 36.7402 165.746 36.3507C166.713 35.7602 167.241 34.9434 167.568 34.4408C167.857 33.9885 167.631 31.7016 167.744 31.4126" stroke="#661428" stroke-miterlimit="10"/>
<path d="M86.6987 42.7213C85.7438 43.2992 83.3189 46.2771 82.1252 48.2875C80.2405 51.4539 80.6174 54.658 80.7934 56.0276C81.6729 62.7373 87.4026 66.6576 88.747 67.5246C91.4862 69.2837 93.5469 69.5602 100.897 70.8418C115.435 73.3674 111.477 72.9653 116.805 73.7192C122.12 74.4605 132.926 75.8301 147.225 76.3704C157.114 76.7474 164.351 76.5589 172.041 76.3704C177.406 76.2322 182.332 76.0186 188.187 75.4909C202.499 74.1841 206.369 72.4124 208.743 71.068C212.45 68.9696 214.8 66.5948 218.029 63.3279C220.077 61.2546 221.195 59.8348 221.786 57.7993C222.113 56.6935 222.866 54.3439 221.786 51.8309C220.416 48.6142 217.3 46.0259 216.747 45.8625" stroke="#661428" stroke-miterlimit="10"/>
<path d="M77.9034 64.71C79.0217 66.3812 82.4519 70.2387 85.3293 72.2491C89.2748 75.0134 92.8809 75.5788 97.5677 76.5715C108.135 78.8332 106.011 79.4489 115.121 81.2959C117.157 81.7106 125.098 83.2561 136.582 83.7838C148.733 84.3367 148.682 83.0048 166.55 82.7158C178.7 82.5273 183.086 83.0676 192.271 81.6478C195.839 81.0949 201.807 79.9892 208.404 76.5715C213.455 73.9579 216.132 71.4198 216.923 70.6533C220.278 67.3613 223.834 60.752 224.915 58.4275" stroke="#661428" stroke-miterlimit="10"/>
<path d="M82.3015 76.0186C83.6082 76.4081 87.4528 76.7223 89.7648 77.5767C94.4516 79.3107 97.7687 80.9692 98.7363 81.4467C104.931 84.4749 112.495 86.4099 117.923 87.7921C131.921 91.3731 143.87 91.9762 150.567 92.0265C158.144 92.0893 164.225 91.4988 172.041 90.7323C178.273 90.1292 181.553 89.7899 186.164 88.8727C192.597 87.591 199.533 86.1586 207.21 81.9116C211.935 79.2981 217.074 75.4908 219.261 73.5056" stroke="#661428" stroke-miterlimit="10"/>
<path d="M75.3906 79.7881C76.2953 80.8938 79.6122 84.1356 81.5221 85.8445C86.9502 90.7197 92.6673 93.1197 97.3415 94.6526C103.335 96.6253 111.653 98.5352 130.375 99.9299C140.427 100.684 148.67 100.734 165.18 100.86C174.855 100.935 181.201 100.835 189.242 98.6608C195.713 96.9143 199.872 94.7405 202.662 93.2579C211.445 88.5962 214.398 84.5377 215.277 83.2561C216.408 81.6101 218.796 78.9588 219.261 77.9033" stroke="#661428" stroke-miterlimit="10"/>
<path d="M73.5057 86.0706C74.4104 88.081 77.5641 92.8181 80.6426 95.6327C85.1283 99.7289 89.8276 100.684 102.933 103.586C120.298 107.431 118.388 107.155 120.122 107.431C125.889 108.374 137.035 110.133 150.894 109.228C153.683 109.052 157.805 108.675 176.062 104.969C187.647 102.619 200.011 100.47 207.952 98.6357" stroke="#661428" stroke-miterlimit="10"/>
<path d="M77.0113 99.7666C79.2353 101.714 82.653 104.365 87.2643 106.677C88.9104 107.494 93.7731 109.819 104.969 111.816C113.123 113.274 119.908 113.714 124.47 113.865C138.48 114.355 149.223 112.822 156.033 111.816C167.442 110.133 168.962 107.984 179.643 106.866C182.457 106.577 186.352 106.275 191.705 104.994C196.995 103.725 206.431 99.2137 209.208 98.0074" stroke="#661428" stroke-miterlimit="10"/>
<path d="M74.7621 101.777C75.805 103.41 79.8133 109.002 82.5022 111.289C86.9502 115.046 91.7375 116.616 102.669 118.966C110.547 120.662 114.493 121.504 120.436 122.321C130.463 123.703 141.005 125.148 154.827 124.96C167.467 124.796 176.3 124.671 187.42 121.353C204.861 116.151 211.797 112.558 215.503 106.841C216.521 105.27 218.858 101.488 219.26 100.521" stroke="#661428" stroke-miterlimit="10"/>
<path d="M72.8775 115.599C75.6418 117.106 81.6603 119.418 86.5733 121.253C93.2327 123.741 99.1258 125.035 107.004 126.291C118.878 128.189 129.156 129.018 137.499 129.47C157.616 130.576 170.47 129.697 173.599 129.47C180.007 129.005 188.363 128.138 198.277 124.985C207.499 122.044 211.42 119.242 214.197 115.938C217.526 111.992 219.901 105.798 220.517 103.033" stroke="#661428" stroke-miterlimit="10"/>
<path d="M72.2494 121.881C75.843 123.527 84.7513 127.963 91.0841 130.023C97.3792 132.071 106.388 134.496 123.904 136.482C140.578 138.379 153.156 139.811 170.269 138.291C187.659 136.746 197.385 133.24 202.184 131.292C207.575 129.093 213.795 126.781 216.748 125.022" stroke="#661428" stroke-miterlimit="10"/>
<path d="M74.1336 127.535C76.7849 129.558 87.2141 133.366 92.2904 135.879C98.2839 138.844 106.527 141.885 127.523 143.707C141.571 144.925 152.841 144.523 175.396 143.707C175.396 143.707 187.496 143.267 205.59 137.675C209.284 136.532 215.353 134.421 216.345 130.011C216.584 128.943 217.501 125.022 217.375 124.394" stroke="#661428" stroke-miterlimit="10"/>
<path d="M74.7621 128.792C77.6395 131.958 84.4498 139.058 90.8831 142.865C94.6275 145.076 101.84 148.758 122.534 151.61C131.895 152.892 145.29 154.663 163.157 153.734C182.482 152.728 180.246 149.951 197.648 148.77C200.3 148.594 206.444 148.243 212.299 144.486C213.594 143.656 216.835 141.52 219.487 137.437C220.957 135.175 223.206 130.928 223.658 129.42" stroke="#661428" stroke-miterlimit="10"/>
<path d="M108.06 157.063C104.767 156.058 98.5855 156.573 96.6128 156.385C93.0694 156.046 89.8151 155.769 86.2215 157.189C84.1357 158.018 80.9944 159.25 80.6426 161.763C80.341 163.924 82.2132 166.437 85.3168 167.857" stroke="#661428" stroke-miterlimit="10"/>
</svg>
