<svg width="278" height="275" viewBox="0 0 278 275" fill="none" xmlns="http://www.w3.org/2000/svg">
<path d="M53.5215 43.0764C62.7471 43.5509 69.4101 42.1168 73.882 40.6405C80.0837 38.6053 82.672 36.296 88.4124 36.4331C91.6927 36.5069 94.7166 37.593 100.79 39.7547C109.401 42.8233 108.504 43.5931 112.899 44.6265C120.959 46.5246 123.547 43.8462 130.107 46.3981C131.594 46.9781 133.605 48.254 137.642 50.827C143.292 54.4229 143.42 55.0661 146.79 57.0275C152.467 60.3281 153.364 59.2419 158.899 62.3422C162.154 64.1664 166.087 66.3703 168.855 70.5356C171.828 74.9962 171.841 79.2774 171.815 80.9435C171.777 83.7485 171.123 84.8241 168.586 92.2372C167.958 94.0826 166.254 99.0493 164.819 103.974C162.653 111.376 163.076 111.83 161.116 118.136C159.668 122.776 159.181 123.356 157.015 129.651C155.145 135.071 154.158 138.519 152.71 143.37C150.506 150.741 146.701 163.521 141.678 177.683C138.052 187.933 138.308 186.151 136.296 192.288C134.387 198.13 133.849 200.714 131.453 204.689C128.685 209.297 127.775 208.58 124.726 213.326C121.343 218.609 122.74 219.094 118.268 228.816C116.166 233.403 114.654 235.902 115.846 236.788C117.217 237.801 121.112 235.871 121.497 235.681C126.366 233.224 128.224 228.901 129.3 226.159C133.221 216.109 131.658 214.043 134.413 206.904C135.399 204.352 138.09 197.339 144.907 190.527C148.764 186.668 152.838 183.968 156.208 178.126C158.207 174.657 158.758 172.158 158.899 171.472C159.847 166.833 158.643 163.701 159.283 163.553C160.104 163.374 162.461 168.277 167.305 177.23C170.495 183.114 172.353 186.33 176.569 187.975C178.862 188.872 181.899 189.315 182.245 188.756C182.706 187.996 178.235 185.434 177.517 185.023C170.47 180.984 166.69 181.627 163.525 178.169C161.616 176.091 161.244 173.982 161.116 173.191C160.616 170.112 161.654 166.147 163.525 165.873C165.331 165.609 166.139 169.079 171.277 174.119C175.428 178.19 176.646 177.641 181.297 182.365C183.655 184.759 185.384 186.552 186.781 189.367C188.024 191.877 187.665 192.51 188.857 193.722C191.291 196.179 196.237 197.086 200.21 196.211C204.13 195.346 203.759 193.48 208.346 192.478C209.615 192.204 213.356 191.434 217.046 192.942C218.264 193.438 219.135 194.049 219.699 194.503" stroke="#F5F1E8" stroke-miterlimit="10"/>
<path d="M182.22 188.734C182.771 188.798 184.462 189.072 185.705 190.295C186.397 190.97 187.115 192.109 186.756 192.383C186.218 192.805 184.193 190.675 180.951 190.295C178.504 190.01 176.479 190.864 175.352 191.339C169.675 193.733 166.997 199.343 166.165 201.072C160.155 213.473 160.065 208.738 154.338 221.413C148.982 233.266 149.225 237.052 143.562 243.748C141.986 245.604 139.436 248.314 135.541 250.96C132.44 253.059 129.006 255.389 123.816 256.433C116.859 257.836 110.99 256.064 108.286 255.221C106.095 254.535 98.6507 252.089 93.9225 245.656C92.4874 243.705 90.2322 239.93 90.0144 233.224C89.7197 223.881 93.6791 217.248 99.9448 206.366C100.65 205.132 110.913 187.29 117.269 175.511C123.855 163.289 128.288 153.757 129.839 150.393C138.846 130.8 136.066 132.614 143.139 118.325C153.787 96.8346 159.104 86.0892 161.09 83.822C161.462 83.4002 162.397 82.3563 162.577 80.8694C162.987 77.3052 158.477 75.4071 151.275 69.3965C143.241 62.6899 142.268 59.558 137.232 58.9675C134.695 58.6722 133.593 59.3049 131.107 58.4508C127.929 57.3541 127.968 55.6985 123.611 52.5456C120.305 50.1518 117.679 49.2133 118.012 48.3697C118.268 47.7265 120.049 47.6843 120.331 47.6738C124.06 47.5789 127.173 50.3417 129.198 52.1976C132.401 55.1185 132.734 56.753 134.695 56.8901C136.707 57.0377 137.463 55.3716 139.769 55.5825C141.332 55.7302 141.922 56.5843 143.997 57.9341C146.06 59.2838 146.573 59.1573 150.443 60.971C152.275 61.8357 155.26 63.2382 158.464 65.3156C161.565 67.3191 163.82 68.7743 165.755 71.4C167.548 73.8359 168.163 76.0504 168.497 77.3052C168.907 78.8553 169.291 81.1014 168.817 85.4776C167.907 93.7133 167.305 99.2178 162.692 103.383C161.385 104.554 159.783 105.619 158.784 107.812C157.861 109.858 158.336 110.986 158.361 114.065C158.387 116.058 157.708 119.39 156.349 126.055C155.529 130.125 155.26 130.853 154.338 131.528C151.878 133.352 148.738 131.96 146.522 133.964C144.587 135.714 145.176 138.403 145.253 138.74C145.778 140.955 147.611 142.199 148.213 142.568C150.032 143.686 153.684 144.878 156.555 143.18C158.861 141.82 160.091 138.93 158.566 136.737C157.336 134.965 154.748 134.28 152.646 134.491C149.405 134.807 147.841 137.211 147.572 137.623C145.894 140.206 146.675 143.581 148.738 145.616C150.904 147.756 153.172 147.124 154.44 149.096C155.645 150.973 155.119 153.946 152.749 155.697C149.994 157.743 145.971 157.215 143.562 155.866C140.64 154.231 138.782 150.646 140.499 148.568C141.973 146.776 145.356 146.976 145.778 147.008C148.687 147.208 151.737 148.99 152.121 151.352C152.365 152.829 151.48 154.01 151.07 154.568C148.777 157.648 143.92 158.344 142.934 158.481C139.487 158.976 138.206 158.133 136.591 159.177C134.515 160.537 134.772 163.194 134.797 163.437C135.169 166.643 138.91 168.172 139.231 168.309C141.858 169.342 145.932 169.447 148.213 167.265C149.712 165.831 150.455 163.374 149.161 161.876C147.367 159.788 142.614 160.727 140.294 161.613C139.064 162.087 137.206 162.794 136.591 164.312C135.656 166.611 138.09 169.521 140.717 170.913C143.28 172.274 144.881 171.588 146.099 172.917C147.598 174.541 147.111 177.662 145.048 179.17C142.127 181.311 136.899 179.56 134.272 177.514C132.004 175.753 130.325 172.685 131.53 171.514C132.773 170.312 136.63 171.546 137.334 171.778C140.025 172.643 143.831 174.815 143.357 176.386C142.69 178.558 134.49 177.578 128.89 181.69C128.391 182.059 127.506 182.755 127.096 183.863C126.328 185.887 127.532 188.154 129.211 189.515C129.672 189.884 131.171 191.075 133.542 191.255C135.963 191.444 138.795 190.538 140.089 188.555C140.294 188.228 141.371 186.604 140.512 184.906C139.538 182.977 136.553 181.88 134.285 182.555C131.761 183.304 131.171 185.929 131.12 186.204C130.735 188.049 131.761 189.008 133.977 193.68C135.874 197.698 135.848 198.531 135.451 199.237C134.374 201.156 130.915 201.504 130.172 201.589C129.364 201.673 125.982 201.916 123.522 199.933C123.188 199.669 120.651 197.634 121.51 195.673C122.227 194.06 124.739 193.627 125.52 193.501C126.046 193.416 129.39 192.9 131.017 194.545C132.03 195.567 131.799 196.843 131.44 198.889C131.03 201.23 130.607 203.613 128.698 204.362C126.879 205.079 125.789 203.508 122.471 203.497C119.908 203.487 115.923 204.404 114.552 207.062C113.104 209.877 115.577 212.724 115.718 212.882C115.923 213.114 117.909 215.255 121.318 215.487C125.008 215.751 129.698 213.726 129.877 210.615C129.992 208.506 128.032 206.197 125.226 205.659C123.163 205.269 120.28 205.775 119.203 207.568C118.614 208.569 118.563 209.983 119.408 210.953C120.6 212.313 122.586 211.765 123.214 212.693C124.124 214.053 120.562 216.288 117.717 220.085C115.257 223.364 114.514 226.243 113.604 229.818C112.451 234.278 111.515 237.937 114.027 240.426C114.373 240.763 115.91 242.292 117.935 242.25C120.767 242.197 121.254 239.139 125.008 238.254C127.506 237.663 128.045 238.834 131.03 238.338C133.913 237.864 135.771 236.387 137.898 234.689C140.794 232.37 142.831 230.746 143.395 228.088C143.972 225.357 143.049 221.255 139.59 220.095C137.027 219.23 134.528 220.475 134.413 220.528C131.312 222.12 130.402 226.106 132.517 228.352C134.413 230.366 137.962 230.134 138.475 230.092C143.267 229.712 147.175 225.557 147.085 221.919C147.034 220.064 145.958 218.661 144.228 216.447C141.627 213.083 140.038 213.072 139.051 210.794C138.962 210.594 137.411 206.84 140 203.75C142.537 200.724 148.187 199.374 151.404 201.146C153.326 202.2 153.851 204.088 154.363 205.923C154.953 208.063 155.734 210.858 153.62 212.872C151.724 214.696 147.624 215.74 144.856 214C141.691 212.007 142.178 207.568 144.113 206.524C144.715 206.197 145.471 206.197 151.288 207.831C156.824 209.381 157.4 209.74 158.259 209.392C160.757 208.39 158.925 204.088 161.103 199.132C161.731 197.719 163.615 194.386 167.753 191.835C172.148 189.124 176.813 188.713 178.863 188.629" stroke="#F5F1E8" stroke-miterlimit="10"/>
<path d="M129.261 238.465C125.494 238.676 122.381 240.342 121.42 242.662C120.792 244.191 121.215 245.699 121.279 245.952C121.458 246.564 121.996 248.367 123.79 249.158C125.815 250.054 128.467 249.252 128.467 249.2C128.467 249.179 127.839 249.221 127.826 249.158C127.801 248.989 131.645 249.158 133.618 247.428C135.181 246.068 135.258 243.801 134.605 242.156C133.567 239.572 130.722 238.581 130.299 238.444" stroke="#F5F1E8" stroke-miterlimit="10"/>
</svg>
